<svg width="47" height="41" viewBox="0 0 47 41" fill="none" xmlns="http://www.w3.org/2000/svg">
<g filter="url(#filter0_d_27_86)">
<path fill-rule="evenodd" clip-rule="evenodd" d="M31.1217 4.85739C30.8776 4.43913 30.3689 4.25589 29.9142 4.42241L25.989 5.85978C25.7938 5.93125 25.5812 5.94013 25.3808 5.88518L21.3256 4.77357C20.852 4.64375 20.3543 4.877 20.151 5.324L18.4534 9.05655C18.3652 9.25046 18.2174 9.41113 18.0315 9.51517L14.4318 11.53C13.9973 11.7731 13.8079 12.2989 13.9875 12.7633L15.4755 16.6108C15.5524 16.8095 15.5638 17.0275 15.5081 17.2331L14.4355 21.1908C14.307 21.6647 14.5417 22.1618 14.9893 22.3638L18.8218 24.0935C19.0112 24.179 19.1693 24.3214 19.2741 24.5009L21.381 28.1112C21.6251 28.5294 22.1338 28.7127 22.5886 28.5462L26.5137 27.1088C26.7089 27.0373 26.9215 27.0284 27.122 27.0834L31.1771 28.195C31.6507 28.3248 32.1485 28.0916 32.3518 27.6446L34.0493 23.912C34.1375 23.7181 34.2853 23.5574 34.4712 23.4534L38.071 21.4386C38.5054 21.1954 38.6948 20.6697 38.5152 20.2053L37.0272 16.3578C36.9504 16.1591 36.939 15.9411 36.9947 15.7355L38.0673 11.7778C38.1957 11.3038 37.9611 10.8067 37.5135 10.6047L33.681 8.87507C33.4915 8.78957 33.3334 8.64715 33.2286 8.46764L31.1217 4.85739ZM23.749 23.3665C27.6354 24.7664 31.9003 22.8077 33.275 18.9915C34.6496 15.1753 32.6135 10.9468 28.727 9.54686C24.8406 8.1469 20.5757 10.1056 19.201 13.9218C17.8264 17.738 19.8625 21.9665 23.749 23.3665Z" fill="url(#paint0_linear_27_86)"/>
<path fill-rule="evenodd" clip-rule="evenodd" d="M31.6376 29.6801L26.9481 28.2017L22.4973 30.1878L22.4971 30.1878L22.4971 30.1879L22.4854 30.1931L22.4974 30.1924L22.979 37.1858L27.3822 34.6939L32.1022 36.6831L32.1198 36.6822L31.6379 29.6847L31.6501 29.684L31.6376 29.6801Z" fill="url(#paint1_linear_27_86)"/>
<path fill-rule="evenodd" clip-rule="evenodd" d="M20.4245 29.4416L18.2627 25.0733L13.6957 23.2165L13.7046 23.2248L8.87367 28.3044L13.7691 29.7796L15.5747 34.5155L15.5877 34.5275L20.4214 29.445L20.4302 29.4531L20.4246 29.4417L20.4246 29.4417L20.4245 29.4416Z" fill="url(#paint2_linear_27_86)"/>
<path d="M21.4072 18.7115L21.7986 17.6248L25.5435 15.9924C25.8363 15.8718 26.0631 15.7508 26.2237 15.6294C26.3844 15.508 26.5055 15.388 26.5873 15.2693C26.6759 15.1532 26.7401 15.0399 26.7798 14.9295C26.8842 14.6397 26.8637 14.3829 26.7183 14.159C26.5823 13.9308 26.3245 13.7483 25.9451 13.6116C25.6415 13.5022 25.3375 13.459 25.0331 13.4818C24.7355 13.5072 24.4524 13.6117 24.1835 13.7955L23.2456 12.5691C23.6707 12.2545 24.1751 12.066 24.7589 12.0034C25.3426 11.9409 25.9588 12.0264 26.6073 12.26C27.1455 12.4539 27.5823 12.7126 27.9178 13.0361C28.2628 13.3552 28.4885 13.7132 28.5949 14.1101C28.7083 14.5095 28.6854 14.93 28.5264 15.3716C28.4419 15.6061 28.3263 15.8295 28.1797 16.0417C28.0425 16.2495 27.8383 16.4488 27.5669 16.6394C27.3025 16.8326 26.9441 17.0269 26.4917 17.2225L23.3869 18.5711L23.286 17.845L27.3739 19.3175L26.8818 20.6836L21.4072 18.7115Z" fill="#C2B9C7"/>
</g>
<defs>
<filter id="filter0_d_27_86" x="0.873657" y="0.361305" width="45.709" height="48.8245" filterUnits="userSpaceOnUse" color-interpolation-filters="sRGB">
<feFlood flood-opacity="0" result="BackgroundImageFix"/>
<feColorMatrix in="SourceAlpha" type="matrix" values="0 0 0 0 0 0 0 0 0 0 0 0 0 0 0 0 0 0 127 0" result="hardAlpha"/>
<feOffset dy="4"/>
<feGaussianBlur stdDeviation="4"/>
<feComposite in2="hardAlpha" operator="out"/>
<feColorMatrix type="matrix" values="0 0 0 0 0.248236 0 0 0 0 0 0 0 0 0 0.320833 0 0 0 1 0"/>
<feBlend mode="normal" in2="BackgroundImageFix" result="effect1_dropShadow_27_86"/>
<feBlend mode="normal" in="SourceGraphic" in2="effect1_dropShadow_27_86" result="shape"/>
</filter>
<linearGradient id="paint0_linear_27_86" x1="30.5969" y1="4.42061" x2="21.9058" y2="28.548" gradientUnits="userSpaceOnUse">
<stop offset="0.753125" stop-color="#C8C8CA"/>
<stop offset="1" stop-color="#D0DADC" stop-opacity="0"/>
</linearGradient>
<linearGradient id="paint1_linear_27_86" x1="26.9481" y1="28.2017" x2="27.4336" y2="36.9425" gradientUnits="userSpaceOnUse">
<stop offset="0.753125" stop-color="#C8C8CA"/>
<stop offset="1" stop-color="#D0DADC" stop-opacity="0"/>
</linearGradient>
<linearGradient id="paint2_linear_27_86" x1="18.2627" y1="25.0733" x2="12.3145" y2="31.4963" gradientUnits="userSpaceOnUse">
<stop offset="0.753125" stop-color="#C8C8CA"/>
<stop offset="1" stop-color="#D0DADC" stop-opacity="0"/>
</linearGradient>
</defs>
</svg>
