<svg width="47" height="41" viewBox="0 0 47 41" fill="none" xmlns="http://www.w3.org/2000/svg">
<g filter="url(#filter0_d_27_101)">
<path fill-rule="evenodd" clip-rule="evenodd" d="M31.1203 4.83918C30.8765 4.41612 30.3627 4.23106 29.9051 4.40142L26.0036 5.85384C25.8074 5.92689 25.5932 5.9365 25.3912 5.88132L21.3657 4.78152C20.892 4.6521 20.3944 4.88578 20.1915 5.33296L18.4846 9.09469C18.3972 9.28727 18.251 9.44719 18.067 9.55147L14.4646 11.5933C14.035 11.8368 13.8474 12.3574 14.0231 12.819L15.496 16.689C15.5712 16.8867 15.5818 17.1031 15.5263 17.3072L14.4423 21.2933C14.3134 21.7671 14.5477 22.2644 14.9951 22.4668L18.7972 24.1867C18.988 24.273 19.1469 24.417 19.2515 24.5984L21.3305 28.2051C21.5744 28.6282 22.0881 28.8132 22.5458 28.6429L26.4472 27.1904C26.6435 27.1174 26.8577 27.1078 27.0597 27.163L31.0852 28.2628C31.5589 28.3922 32.0565 28.1585 32.2594 27.7113L33.9663 23.9496C34.0536 23.757 34.1998 23.5971 34.3838 23.4928L37.9863 21.451C38.4159 21.2075 38.6034 20.6868 38.4278 20.2253L36.9549 16.3552C36.8797 16.1576 36.869 15.9412 36.9245 15.7371L38.0086 11.751C38.1374 11.2772 37.9032 10.7799 37.4558 10.5775L33.6536 8.85761C33.4628 8.77131 33.304 8.62731 33.1994 8.4459L31.1203 4.83918ZM23.7099 23.4413C27.5749 24.8336 31.8285 22.852 33.2105 19.0154C34.5925 15.1787 32.5797 10.9399 28.7146 9.54762C24.8496 8.15536 20.596 10.1369 19.214 13.9736C17.832 17.8102 19.8448 22.0491 23.7099 23.4413Z" fill="url(#paint0_linear_27_101)"/>
<path fill-rule="evenodd" clip-rule="evenodd" d="M31.5431 29.7536L26.8787 28.2854L22.4398 30.295L22.4397 30.2951L22.4397 30.2951L22.4281 30.3004L22.44 30.2997L22.8954 37.3201L27.2884 34.8028L31.9815 36.7839L31.9991 36.7828L31.5434 29.7582L31.5555 29.7575L31.5431 29.7536Z" fill="url(#paint1_linear_27_101)"/>
<path fill-rule="evenodd" clip-rule="evenodd" d="M20.3841 29.5645L18.241 25.1742L13.6999 23.3255L13.7087 23.3338L8.88064 28.451L13.7502 29.9154L15.5317 34.6646L15.5445 34.6766L20.3754 29.5563L20.3841 29.5645Z" fill="url(#paint2_linear_27_101)"/>
<path d="M23.8403 20.2341C23.3367 20.0526 22.8601 19.8069 22.4105 19.4969C21.9635 19.18 21.6122 18.8352 21.3567 18.4625L22.471 17.4141C22.6749 17.7136 22.9385 17.9879 23.2619 18.2369C23.5854 18.4859 23.9333 18.6775 24.3059 18.8117C24.7268 18.9633 25.0878 18.9998 25.3889 18.9212C25.69 18.8426 25.8928 18.6584 25.9971 18.3686C26.0966 18.0927 26.0679 17.8368 25.9112 17.6011C25.7545 17.3653 25.4381 17.1617 24.962 16.9902L24.1962 16.7144L24.5951 15.607L27.437 14.0468L27.4071 14.7142L23.609 13.346L24.0936 12.0007L29.1646 13.8274L28.7732 14.914L25.9416 16.4779L25.2682 15.6858L25.7546 15.861C26.6446 16.1816 27.2453 16.624 27.5565 17.1882C27.8677 17.7524 27.9102 18.3484 27.684 18.9763C27.5374 19.3833 27.2925 19.7277 26.9494 20.0095C26.6088 20.2843 26.1779 20.4526 25.6568 20.5143C25.1358 20.576 24.5302 20.4826 23.8403 20.2341Z" fill="#F37259"/>
</g>
<defs>
<filter id="filter0_d_27_101" x="0.880646" y="0.338455" width="45.6127" height="48.9817" filterUnits="userSpaceOnUse" color-interpolation-filters="sRGB">
<feFlood flood-opacity="0" result="BackgroundImageFix"/>
<feColorMatrix in="SourceAlpha" type="matrix" values="0 0 0 0 0 0 0 0 0 0 0 0 0 0 0 0 0 0 127 0" result="hardAlpha"/>
<feOffset dy="4"/>
<feGaussianBlur stdDeviation="4"/>
<feComposite in2="hardAlpha" operator="out"/>
<feColorMatrix type="matrix" values="0 0 0 0 0.248236 0 0 0 0 0 0 0 0 0 0.320833 0 0 0 1 0"/>
<feBlend mode="normal" in2="BackgroundImageFix" result="effect1_dropShadow_27_101"/>
<feBlend mode="normal" in="SourceGraphic" in2="effect1_dropShadow_27_101" result="shape"/>
</filter>
<linearGradient id="paint0_linear_27_101" x1="30.5929" y1="4.39777" x2="21.858" y2="28.6465" gradientUnits="userSpaceOnUse">
<stop offset="0.675" stop-color="#FF794F"/>
<stop offset="1" stop-color="#FFBBB2" stop-opacity="0"/>
</linearGradient>
<linearGradient id="paint1_linear_27_101" x1="26.8787" y1="28.2854" x2="27.4004" y2="37.0564" gradientUnits="userSpaceOnUse">
<stop offset="0.675" stop-color="#FF794F"/>
<stop offset="1" stop-color="#FFBBB2" stop-opacity="0"/>
</linearGradient>
<linearGradient id="paint2_linear_27_101" x1="18.241" y1="25.1742" x2="12.2457" y2="31.5974" gradientUnits="userSpaceOnUse">
<stop offset="0.675" stop-color="#FF794F"/>
<stop offset="1" stop-color="#FFBBB2" stop-opacity="0"/>
</linearGradient>
</defs>
</svg>
